<svg xmlns="http://www.w3.org/2000/svg" viewBox="0 0 192.6 192.6"><defs><style>.cls-1{opacity:0.8;}.cls-2{fill:#fff;}.cls-3{fill:#502c84;}.cls-4{fill:none;stroke:#fff;stroke-width:21px;}</style></defs><g id="Layer_2" data-name="Layer 2"><g id="Layer_1-2" data-name="Layer 1"><g class="cls-1"><path class="cls-2" d="M98.55,177.71A81.36,81.36,0,1,0,17.2,96.36a81.35,81.35,0,0,0,81.35,81.35"/></g><path class="cls-3" d="M49.34,83.79c2.9,1.83,5,3.41,5,6.49,0,3.29-2.15,5.15-5,5.59v3.64h-.6V96c-.25,0-.51,0-.77,0-.43,0-.79,0-1.15-.06v3.59h-.6V95.83a6.88,6.88,0,0,1-2.37-1,2.08,2.08,0,0,0-1-.42c-.4,0-.54.45-.66,1.32h-.69c.09-1.23.12-3,.12-7.2h.69c.2,3.11,1.23,5.88,3.92,6.62V85.44c-2.52-1.56-4.58-3.19-4.58-6.27a4.92,4.92,0,0,1,4.58-5.12V70.36h.6V74l.46,0a6.82,6.82,0,0,1,1.46.14V70.36h.6v3.89a5.84,5.84,0,0,1,1.6.84,2,2,0,0,0,1,.42c.4,0,.54-.45.66-1.32h.7c-.1,1.06-.16,2.35-.16,6.13h-.69c-.16-2.27-1.07-4.59-3.12-5.44Zm-3.12-9A3.32,3.32,0,0,0,43.88,78c0,1.74.95,2.81,2.34,3.8Zm2.52-.06a4.49,4.49,0,0,0-1.2-.14,4.28,4.28,0,0,0-.72,0v7.64l1.92,1.18ZM46.82,95.3a5.67,5.67,0,0,0,.94.08,4,4,0,0,0,1-.11V87c-.54-.39-1.12-.75-1.77-1.13l-.15-.09Zm2.52-.2a3.67,3.67,0,0,0,2.32-3.72c0-1.66-.88-2.83-2.32-3.93Z"/><path class="cls-3" d="M58.65,68.9a13.73,13.73,0,0,1,13-8.25c6.06,0,9.89,3,9.89,8.31,0,8.77-11.76,15-16.56,21.5H78.4c3.61,0,4.1-.84,4.42-3.35H84c0,4.67.06,6.73.25,8.76a90.49,90.49,0,0,0-9.82-.32H58.91V94.42c5.35-5.73,16.24-13.11,16.24-24,0-5-2.51-7.12-6.61-7.12-3.48,0-6.51,2-8.83,6.19Z"/><path class="cls-3" d="M90.26,68.9a13.73,13.73,0,0,1,13-8.25c6.06,0,9.9,3,9.9,8.31,0,8.77-11.77,15-16.57,21.5H110c3.61,0,4.09-.84,4.41-3.35h1.13c0,4.67.07,6.73.26,8.76a90.7,90.7,0,0,0-9.83-.32H90.52V94.42c5.35-5.73,16.24-13.11,16.24-24,0-5-2.51-7.12-6.6-7.12-3.48,0-6.51,2-8.83,6.19Z"/><path class="cls-3" d="M140.83,58.27c0,5,.06,7.44.25,9.63a76.57,76.57,0,0,0-9.15-.32h-7l-.78,12.73a15.18,15.18,0,0,1,7.74-2c8,0,11.66,4.38,11.66,10.18,0,10.22-11.47,16.83-21.78,16.83v-1.2c7.73-.06,15.5-5,15.5-15,0-5.54-3-8.83-8.32-8.83a12.59,12.59,0,0,0-5.41,1.13l-.64-.42,1.25-19.66a20.47,20.47,0,0,0,3.55.26h7.47c3.65,0,4.1-.84,4.42-3.35Z"/><path class="cls-3" d="M60.43,117.26v-5.17h.91a.35.35,0,0,1,.36.26l.08.28.26-.25a1.45,1.45,0,0,1,.29-.19,1.2,1.2,0,0,1,.33-.13,1.6,1.6,0,0,1,.39,0,1.12,1.12,0,0,1,.74.24,1.6,1.6,0,0,1,.44.65,1.64,1.64,0,0,1,.31-.41,1.46,1.46,0,0,1,.38-.27,2.09,2.09,0,0,1,.44-.16,2.31,2.31,0,0,1,.46,0,2.18,2.18,0,0,1,.75.13,1.53,1.53,0,0,1,.55.39,1.83,1.83,0,0,1,.33.62,2.65,2.65,0,0,1,.11.83v3.28H66.09V114c0-.54-.22-.81-.65-.81a.66.66,0,0,0-.5.21.85.85,0,0,0-.2.6v3.28H63.27V114a.93.93,0,0,0-.17-.63.63.63,0,0,0-.49-.18.82.82,0,0,0-.37.1,1.56,1.56,0,0,0-.34.25v3.74Z"/><path class="cls-3" d="M70.17,110.68a.8.8,0,0,1-.07.34.85.85,0,0,1-.48.48.84.84,0,0,1-.35.07.8.8,0,0,1-.34-.07,1.07,1.07,0,0,1-.28-.19,1.12,1.12,0,0,1-.19-.29,1,1,0,0,1-.07-.34,1,1,0,0,1,.07-.36,1.12,1.12,0,0,1,.19-.29.87.87,0,0,1,.28-.19.8.8,0,0,1,.34-.07.84.84,0,0,1,.35.07.91.91,0,0,1,.29.19,1.12,1.12,0,0,1,.19.29A.86.86,0,0,1,70.17,110.68ZM70,112.09v5.17H68.55v-5.17Z"/><path class="cls-3" d="M72.52,109.8v7.46H71.05V109.8Z"/><path class="cls-3" d="M75,109.8v7.46H73.52V109.8Z"/><path class="cls-3" d="M77.65,110.68a1,1,0,0,1-.07.34,1.15,1.15,0,0,1-.2.29,1,1,0,0,1-.29.19.86.86,0,0,1-.68,0,.92.92,0,0,1-.28-.19,1.12,1.12,0,0,1-.19-.29.8.8,0,0,1-.07-.34.86.86,0,0,1,.07-.36,1.12,1.12,0,0,1,.19-.29.87.87,0,0,1,1-.19.81.81,0,0,1,.29.19,1.15,1.15,0,0,1,.2.29A1,1,0,0,1,77.65,110.68Zm-.15,1.41v5.17H76v-5.17Z"/><path class="cls-3" d="M80.8,112a2.61,2.61,0,0,1,1,.19,2.27,2.27,0,0,1,.79.52,2.37,2.37,0,0,1,.51.84,3.51,3.51,0,0,1,0,2.22,2.37,2.37,0,0,1-.51.84,2.31,2.31,0,0,1-.79.54,3,3,0,0,1-2,0,2.36,2.36,0,0,1-.8-.54,2.39,2.39,0,0,1-.52-.84,3.51,3.51,0,0,1,0-2.22,2.39,2.39,0,0,1,.52-.84,2.31,2.31,0,0,1,.8-.52A2.63,2.63,0,0,1,80.8,112Zm0,4.19a.83.83,0,0,0,.75-.38,3,3,0,0,0,0-2.29.82.82,0,0,0-.75-.37.85.85,0,0,0-.77.37,2.85,2.85,0,0,0,0,2.29A.85.85,0,0,0,80.8,116.2Z"/><path class="cls-3" d="M85.4,112.65l.3-.26a1.7,1.7,0,0,1,.7-.33,2,2,0,0,1,.44,0,1.58,1.58,0,0,1,.71.15,1.43,1.43,0,0,1,.53.41,1.74,1.74,0,0,1,.32.62,2.79,2.79,0,0,1,.11.79v3.28H87V114a.92.92,0,0,0-.17-.59.56.56,0,0,0-.49-.22,1,1,0,0,0-.45.11,1.81,1.81,0,0,0-.41.29v3.69H84.05v-5.17H85a.35.35,0,0,1,.36.26Z"/><path class="cls-3" d="M93.31,110.68a.8.8,0,0,1-.07.34.85.85,0,0,1-.48.48.84.84,0,0,1-.35.07.8.8,0,0,1-.34-.07,1,1,0,0,1-.27-.19.77.77,0,0,1-.19-.29.8.8,0,0,1-.07-.34.86.86,0,0,1,.07-.36.77.77,0,0,1,.19-.29.83.83,0,0,1,.27-.19.8.8,0,0,1,.34-.07.84.84,0,0,1,.35.07.91.91,0,0,1,.29.19,1.12,1.12,0,0,1,.19.29A.86.86,0,0,1,93.31,110.68Zm-.15,1.41v5.17H91.69v-5.17Z"/><path class="cls-3" d="M95.55,112.65a3.73,3.73,0,0,1,.3-.26,1.32,1.32,0,0,1,.32-.2,1.55,1.55,0,0,1,.38-.13,2,2,0,0,1,.44,0,1.64,1.64,0,0,1,.71.15,1.4,1.4,0,0,1,.52.41,1.75,1.75,0,0,1,.33.62,2.79,2.79,0,0,1,.11.79v3.28H97.18V114a.92.92,0,0,0-.16-.59.57.57,0,0,0-.49-.22,1,1,0,0,0-.45.11,1.86,1.86,0,0,0-.42.29v3.69H94.19v-5.17h.91a.36.36,0,0,1,.37.26Z"/><path class="cls-3" d="M104.13,112.09l-1.91,5.17h-1.34L99,112.09h1.23a.45.45,0,0,1,.26.08.35.35,0,0,1,.15.19l.68,2.32c.06.19.12.38.16.55a5.23,5.23,0,0,1,.12.54,9.28,9.28,0,0,1,.29-1.09l.72-2.32a.33.33,0,0,1,.14-.19.41.41,0,0,1,.25-.08Z"/><path class="cls-3" d="M105.66,115a1.49,1.49,0,0,0,.38.94,1.06,1.06,0,0,0,.78.3,1.16,1.16,0,0,0,.44-.07,1.72,1.72,0,0,0,.33-.14l.27-.15a.57.57,0,0,1,.25-.06.3.3,0,0,1,.27.13l.43.56a2.22,2.22,0,0,1-.49.44,2.16,2.16,0,0,1-.55.27,2.78,2.78,0,0,1-.55.14l-.53,0a2.78,2.78,0,0,1-1-.17,2.38,2.38,0,0,1-.8-.53,2.51,2.51,0,0,1-.53-.87,3.39,3.39,0,0,1-.2-1.2,2.94,2.94,0,0,1,.17-1,2.35,2.35,0,0,1,.48-.81,2.26,2.26,0,0,1,.77-.55,2.37,2.37,0,0,1,1-.21,2.57,2.57,0,0,1,.9.16,2,2,0,0,1,.7.47,2.19,2.19,0,0,1,.45.74,2.87,2.87,0,0,1,.17,1,2.19,2.19,0,0,1,0,.29.58.58,0,0,1,0,.17.28.28,0,0,1-.1.09.44.44,0,0,1-.17,0Zm1.86-.89a1.36,1.36,0,0,0,0-.36.81.81,0,0,0-.15-.31.77.77,0,0,0-.27-.23,1,1,0,0,0-.4-.08.82.82,0,0,0-.65.25,1.34,1.34,0,0,0-.32.73Z"/><path class="cls-3" d="M112.7,113.22a.43.43,0,0,1-.12.14.27.27,0,0,1-.16,0,.54.54,0,0,1-.21-.05l-.23-.1a1.69,1.69,0,0,0-.27-.1,1.23,1.23,0,0,0-.35-.05.76.76,0,0,0-.43.11.37.37,0,0,0-.15.31.33.33,0,0,0,.1.24.84.84,0,0,0,.26.17l.37.14.41.14a4.08,4.08,0,0,1,.42.19,1.64,1.64,0,0,1,.37.26,1.5,1.5,0,0,1,.26.38,1.45,1.45,0,0,1,.09.54,1.8,1.8,0,0,1-.13.71,1.48,1.48,0,0,1-.4.56,1.64,1.64,0,0,1-.65.36,2.69,2.69,0,0,1-.89.13,2.12,2.12,0,0,1-.5,0,2.72,2.72,0,0,1-.49-.13,2.83,2.83,0,0,1-.43-.2,2,2,0,0,1-.35-.25l.35-.57a.44.44,0,0,1,.14-.16.41.41,0,0,1,.23-.06.46.46,0,0,1,.23.06l.22.13a1.46,1.46,0,0,0,.28.13,1.12,1.12,0,0,0,.4.06.85.85,0,0,0,.29,0,.39.39,0,0,0,.19-.1.33.33,0,0,0,.1-.14.37.37,0,0,0-.06-.42.73.73,0,0,0-.27-.17,2.46,2.46,0,0,0-.36-.14l-.42-.14a2.68,2.68,0,0,1-.42-.19,1.48,1.48,0,0,1-.37-.29,1.11,1.11,0,0,1-.26-.42,1.54,1.54,0,0,1-.1-.6,1.68,1.68,0,0,1,.12-.63,1.43,1.43,0,0,1,.36-.52,1.83,1.83,0,0,1,.61-.36,2.71,2.71,0,0,1,.85-.13,3,3,0,0,1,.52,0,3.23,3.23,0,0,1,.47.14,2.52,2.52,0,0,1,.4.21,2.07,2.07,0,0,1,.31.27Z"/><path class="cls-3" d="M115.57,117.34a1.68,1.68,0,0,1-.62-.1,1.21,1.21,0,0,1-.45-.31,1.18,1.18,0,0,1-.28-.47,1.81,1.81,0,0,1-.1-.63v-2.67h-.42a.27.27,0,0,1-.19-.08.32.32,0,0,1-.08-.23v-.6l.78-.16.29-1.26a.3.3,0,0,1,.33-.24h.77v1.51h1.22v1.06H115.6v2.57a.43.43,0,0,0,.08.29.26.26,0,0,0,.24.12.25.25,0,0,0,.13,0l.1,0,.07,0h.09a.15.15,0,0,1,.1,0,.45.45,0,0,1,.09.1l.44.73a1.88,1.88,0,0,1-.64.34A2.23,2.23,0,0,1,115.57,117.34Z"/><path class="cls-3" d="M118.63,115a1.44,1.44,0,0,0,.37.94,1.07,1.07,0,0,0,.78.3,1.22,1.22,0,0,0,.45-.07,2.52,2.52,0,0,0,.33-.14l.26-.15a.58.58,0,0,1,.26-.06.29.29,0,0,1,.26.13l.43.56a2.22,2.22,0,0,1-.49.44,2.27,2.27,0,0,1-.54.27,2.87,2.87,0,0,1-.56.14l-.53,0a2.83,2.83,0,0,1-1-.17,2.24,2.24,0,0,1-.79-.53,2.38,2.38,0,0,1-.54-.87,3.39,3.39,0,0,1-.2-1.2,2.94,2.94,0,0,1,.17-1,2.38,2.38,0,0,1,.49-.81,2.22,2.22,0,0,1,.76-.55,2.38,2.38,0,0,1,1-.21,2.56,2.56,0,0,1,.89.16,2,2,0,0,1,.7.47,2.21,2.21,0,0,1,.46.74,3.13,3.13,0,0,1,.16,1,2.19,2.19,0,0,1,0,.29.38.38,0,0,1,0,.17.22.22,0,0,1-.1.09.39.39,0,0,1-.16,0Zm1.85-.89a1.36,1.36,0,0,0,0-.36,1,1,0,0,0-.14-.31.87.87,0,0,0-.27-.23,1,1,0,0,0-.41-.08.85.85,0,0,0-.65.25,1.41,1.41,0,0,0-.32.73Z"/><path class="cls-3" d="M127,109.8v7.46h-.91a.34.34,0,0,1-.36-.26l-.11-.39a2.91,2.91,0,0,1-.31.3,1.92,1.92,0,0,1-.35.23,1.49,1.49,0,0,1-.4.15,1.78,1.78,0,0,1-.47,0,1.41,1.41,0,0,1-.71-.18,1.72,1.72,0,0,1-.57-.51,2.7,2.7,0,0,1-.37-.84,4.16,4.16,0,0,1-.14-1.11,3.71,3.71,0,0,1,.15-1.08,3,3,0,0,1,.43-.86,2,2,0,0,1,.67-.56,1.79,1.79,0,0,1,.86-.21,1.57,1.57,0,0,1,.65.12,1.6,1.6,0,0,1,.47.31V109.8Zm-1.47,3.68a.9.9,0,0,0-.36-.27,1.15,1.15,0,0,0-.41-.08.91.91,0,0,0-.37.08.73.73,0,0,0-.3.28,1.54,1.54,0,0,0-.2.48,3.68,3.68,0,0,0-.07.73,3.23,3.23,0,0,0,.06.68,1.54,1.54,0,0,0,.16.46.63.63,0,0,0,.56.32,1.24,1.24,0,0,0,.53-.13,1,1,0,0,0,.21-.15,2,2,0,0,0,.19-.21Z"/><path class="cls-3" d="M131.85,110.68a.81.81,0,0,1-.08.34.91.91,0,0,1-.19.29,1,1,0,0,1-.29.19.81.81,0,0,1-.35.07.8.8,0,0,1-.34-.07,1,1,0,0,1-.27-.19.91.91,0,0,1-.19-.29.8.8,0,0,1-.07-.34.86.86,0,0,1,.07-.36.91.91,0,0,1,.19-.29.83.83,0,0,1,.27-.19.8.8,0,0,1,.34-.07.93.93,0,0,1,.64.26.91.91,0,0,1,.19.29A.86.86,0,0,1,131.85,110.68Zm-.16,1.41v5.17h-1.47v-5.17Z"/><path class="cls-3" d="M134.08,112.65a3.73,3.73,0,0,1,.3-.26,1.7,1.7,0,0,1,.7-.33,2,2,0,0,1,.44,0,1.61,1.61,0,0,1,.71.15,1.52,1.52,0,0,1,.53.41,1.74,1.74,0,0,1,.32.62,2.79,2.79,0,0,1,.11.79v3.28h-1.47V114a.92.92,0,0,0-.17-.59.56.56,0,0,0-.49-.22,1,1,0,0,0-.45.11,1.81,1.81,0,0,0-.41.29v3.69h-1.48v-5.17h.92a.35.35,0,0,1,.36.26Z"/><path class="cls-3" d="M49.14,125.89a2.11,2.11,0,0,1,.53-.66,1,1,0,0,1,.68-.24.85.85,0,0,1,.54.17l-.1,1.13a.21.21,0,0,1-.07.15.24.24,0,0,1-.15,0h-.23l-.14,0h-.12a.73.73,0,0,0-.52.18,1.31,1.31,0,0,0-.32.5v3.14H47.76v-5.17h.88l.18,0,.12.06a.25.25,0,0,1,.08.12,1.22,1.22,0,0,1,0,.17ZM52.51,128a1.54,1.54,0,0,0,.38.94,1.09,1.09,0,0,0,.78.29,1.16,1.16,0,0,0,.44-.07,1.72,1.72,0,0,0,.33-.14l.27-.15a.57.57,0,0,1,.25-.06.3.3,0,0,1,.27.13l.43.56a2.22,2.22,0,0,1-.49.44,2.27,2.27,0,0,1-.54.27,3.06,3.06,0,0,1-.56.14l-.53,0a2.57,2.57,0,0,1-1-.17,2.24,2.24,0,0,1-.79-.53,2.38,2.38,0,0,1-.54-.87,3.35,3.35,0,0,1-.2-1.2,2.94,2.94,0,0,1,.17-1,2.35,2.35,0,0,1,.48-.81,2.26,2.26,0,0,1,.77-.55,2.37,2.37,0,0,1,1-.21,2.57,2.57,0,0,1,.9.16,2,2,0,0,1,.7.47,2.19,2.19,0,0,1,.45.74,2.87,2.87,0,0,1,.17,1,2.19,2.19,0,0,1,0,.29.38.38,0,0,1-.05.17.28.28,0,0,1-.1.09.4.4,0,0,1-.17,0Zm1.86-.9a1.36,1.36,0,0,0,0-.36.81.81,0,0,0-.15-.31.73.73,0,0,0-.26-.23,1,1,0,0,0-.41-.08.82.82,0,0,0-.65.25,1.34,1.34,0,0,0-.32.73Zm5.18-.84a.34.34,0,0,1-.12.14.27.27,0,0,1-.16,0,.54.54,0,0,1-.21-.05l-.23-.1a1.69,1.69,0,0,0-.27-.1,1.23,1.23,0,0,0-.35-.05.76.76,0,0,0-.43.11.37.37,0,0,0-.15.31.33.33,0,0,0,.1.24.84.84,0,0,0,.26.17l.37.14.41.14a4.08,4.08,0,0,1,.42.19,1.64,1.64,0,0,1,.37.26,1.33,1.33,0,0,1,.26.39,1.36,1.36,0,0,1,.09.53,1.8,1.8,0,0,1-.13.71,1.48,1.48,0,0,1-.4.56,1.64,1.64,0,0,1-.65.36,2.65,2.65,0,0,1-.89.13,2.18,2.18,0,0,1-.5-.05,2.72,2.72,0,0,1-.49-.13,2.83,2.83,0,0,1-.43-.2,1.87,1.87,0,0,1-.34-.25l.34-.57a.44.44,0,0,1,.14-.16.41.41,0,0,1,.23-.06A.46.46,0,0,1,57,129l.22.13a1.46,1.46,0,0,0,.28.13,1.12,1.12,0,0,0,.4.06.85.85,0,0,0,.29,0,.39.39,0,0,0,.19-.1.33.33,0,0,0,.1-.14.35.35,0,0,0,0-.17.37.37,0,0,0-.1-.25.78.78,0,0,0-.26-.17,2.61,2.61,0,0,0-.37-.14l-.42-.14A2.68,2.68,0,0,1,57,128a1.48,1.48,0,0,1-.37-.29,1.11,1.11,0,0,1-.26-.42,1.54,1.54,0,0,1-.1-.6,1.68,1.68,0,0,1,.12-.63,1.43,1.43,0,0,1,.36-.52,1.83,1.83,0,0,1,.61-.36,2.73,2.73,0,0,1,.86-.13,2.94,2.94,0,0,1,.51,0,3.23,3.23,0,0,1,.47.14,2.52,2.52,0,0,1,.4.21,2.85,2.85,0,0,1,.32.27ZM61.86,128a1.49,1.49,0,0,0,.38.94,1.09,1.09,0,0,0,.78.29,1.16,1.16,0,0,0,.44-.07,1.72,1.72,0,0,0,.33-.14l.27-.15a.54.54,0,0,1,.25-.06.3.3,0,0,1,.27.13l.43.56a2.26,2.26,0,0,1-.5.44,2,2,0,0,1-.54.27,2.78,2.78,0,0,1-.55.14l-.53,0a2.57,2.57,0,0,1-1-.17,2.28,2.28,0,0,1-.8-.53,2.51,2.51,0,0,1-.53-.87,3.14,3.14,0,0,1-.2-1.2,2.94,2.94,0,0,1,.17-1,2.35,2.35,0,0,1,.48-.81,2.26,2.26,0,0,1,.77-.55,2.34,2.34,0,0,1,1-.21,2.57,2.57,0,0,1,.9.16,1.84,1.84,0,0,1,.69.47,2.06,2.06,0,0,1,.46.74,2.87,2.87,0,0,1,.16,1,2.44,2.44,0,0,1,0,.29.58.58,0,0,1,0,.17.28.28,0,0,1-.1.09.43.43,0,0,1-.17,0Zm1.85-.9a1.37,1.37,0,0,0,0-.36.81.81,0,0,0-.15-.31.87.87,0,0,0-.27-.23,1,1,0,0,0-.4-.08.86.86,0,0,0-.66.25,1.41,1.41,0,0,0-.31.73Zm1.95-1.25a3,3,0,0,1,1-.62,3.42,3.42,0,0,1,1.17-.2,2,2,0,0,1,.8.15,1.82,1.82,0,0,1,.61.43,1.73,1.73,0,0,1,.38.64,2.43,2.43,0,0,1,.14.82v3.23h-.68a.63.63,0,0,1-.31-.06.47.47,0,0,1-.18-.24l-.11-.29a4.11,4.11,0,0,1-.35.29,2.6,2.6,0,0,1-.36.21,1.63,1.63,0,0,1-.39.13,2.09,2.09,0,0,1-.45,0,2,2,0,0,1-.62-.09,1.17,1.17,0,0,1-.46-.27,1.19,1.19,0,0,1-.3-.45,1.62,1.62,0,0,1-.11-.61,1.33,1.33,0,0,1,.14-.57,1.39,1.39,0,0,1,.46-.52,2.89,2.89,0,0,1,.88-.4,6.37,6.37,0,0,1,1.4-.18V127a1,1,0,0,0-.18-.65.6.6,0,0,0-.5-.21,1.27,1.27,0,0,0-.43.06,2.09,2.09,0,0,0-.3.14l-.25.13a.65.65,0,0,1-.29.06.37.37,0,0,1-.26-.08.52.52,0,0,1-.17-.19Zm2.65,2.35a4.25,4.25,0,0,0-.72.08,1.91,1.91,0,0,0-.46.15.66.66,0,0,0-.23.2.54.54,0,0,0-.06.25.44.44,0,0,0,.14.37.58.58,0,0,0,.4.11,1.12,1.12,0,0,0,.5-.1,1.6,1.6,0,0,0,.43-.34Zm3.75-2.27a2.24,2.24,0,0,1,.52-.66,1.07,1.07,0,0,1,.69-.24.85.85,0,0,1,.54.17l-.1,1.13a.18.18,0,0,1-.08.15.21.21,0,0,1-.15,0h-.22l-.14,0H73a.73.73,0,0,0-.52.18,1.45,1.45,0,0,0-.33.5v3.14H70.68v-5.17h.88l.18,0,.12.06a.25.25,0,0,1,.08.12.61.61,0,0,1,0,.17Zm5.79.43a.79.79,0,0,1-.13.13.24.24,0,0,1-.18,0,.35.35,0,0,1-.2,0l-.19-.12a1.58,1.58,0,0,0-.26-.13,1.27,1.27,0,0,0-.37,0,.89.89,0,0,0-.79.4,1.5,1.5,0,0,0-.19.48,3.1,3.1,0,0,0-.06.64,2,2,0,0,0,.27,1.14.9.9,0,0,0,.76.4,1.06,1.06,0,0,0,.4-.07,1.27,1.27,0,0,0,.26-.15l.19-.15a.32.32,0,0,1,.22-.07.3.3,0,0,1,.27.13l.42.56a2.18,2.18,0,0,1-.48.44,1.93,1.93,0,0,1-.51.27,2.6,2.6,0,0,1-.53.14l-.52,0a2.11,2.11,0,0,1-.86-.18,1.85,1.85,0,0,1-.72-.52,2.32,2.32,0,0,1-.5-.84,3.31,3.31,0,0,1-.18-1.13,3.25,3.25,0,0,1,.16-1,2.31,2.31,0,0,1,.47-.84,2.07,2.07,0,0,1,.77-.56,2.51,2.51,0,0,1,1.06-.21,2.47,2.47,0,0,1,1,.2,2.38,2.38,0,0,1,.78.57Zm2.47-.77a2.4,2.4,0,0,1,.57-.39,1.73,1.73,0,0,1,.75-.15,1.61,1.61,0,0,1,.71.15,1.52,1.52,0,0,1,.53.41,1.74,1.74,0,0,1,.32.62,2.85,2.85,0,0,1,.11.79v3.28H81.84V127a.94.94,0,0,0-.17-.59.59.59,0,0,0-.49-.22,1,1,0,0,0-.45.11,1.81,1.81,0,0,0-.41.29v3.69H78.84V122.8h1.48Zm9.26.67a.43.43,0,0,1-.12.14.27.27,0,0,1-.16,0,.54.54,0,0,1-.21-.05l-.23-.1a1.69,1.69,0,0,0-.27-.1,1.23,1.23,0,0,0-.35-.05.76.76,0,0,0-.43.11.37.37,0,0,0-.15.31.33.33,0,0,0,.1.24.84.84,0,0,0,.26.17l.37.14.41.14a4.08,4.08,0,0,1,.42.19,1.64,1.64,0,0,1,.37.26,1.33,1.33,0,0,1,.26.39,1.36,1.36,0,0,1,.09.53,1.8,1.8,0,0,1-.13.71,1.48,1.48,0,0,1-.4.56,1.64,1.64,0,0,1-.65.36,2.65,2.65,0,0,1-.89.13,2.12,2.12,0,0,1-.5-.05,2.72,2.72,0,0,1-.49-.13,2.83,2.83,0,0,1-.43-.2,1.58,1.58,0,0,1-.34-.25l.34-.57a.44.44,0,0,1,.14-.16.41.41,0,0,1,.23-.06.46.46,0,0,1,.23.06l.22.13a1.46,1.46,0,0,0,.28.13,1.12,1.12,0,0,0,.4.06.85.85,0,0,0,.29,0,.39.39,0,0,0,.19-.1.33.33,0,0,0,.1-.14.35.35,0,0,0,0-.17.37.37,0,0,0-.1-.25.78.78,0,0,0-.26-.17l-.37-.14-.42-.14A2.68,2.68,0,0,1,87,128a1.48,1.48,0,0,1-.37-.29,1.11,1.11,0,0,1-.26-.42,1.54,1.54,0,0,1-.1-.6,1.68,1.68,0,0,1,.12-.63,1.43,1.43,0,0,1,.36-.52,1.83,1.83,0,0,1,.61-.36,2.71,2.71,0,0,1,.85-.13,3,3,0,0,1,.52,0,3.23,3.23,0,0,1,.47.14,2.52,2.52,0,0,1,.4.21,2.85,2.85,0,0,1,.32.27Zm2.76-2.54a1,1,0,0,1-.07.34,1,1,0,0,1-.2.29,1,1,0,0,1-.29.19.77.77,0,0,1-.34.07.74.74,0,0,1-.34-.07.92.92,0,0,1-.28-.19,1,1,0,0,1-.19-.29.8.8,0,0,1-.07-.34.86.86,0,0,1,.07-.36,1.12,1.12,0,0,1,.19-.29.77.77,0,0,1,.28-.19.74.74,0,0,1,.34-.07.77.77,0,0,1,.34.07.81.81,0,0,1,.29.19,1.15,1.15,0,0,1,.2.29A1,1,0,0,1,92.34,123.68Zm-.15,1.41v5.17H90.71v-5.17Zm2.39.56.29-.26a1.55,1.55,0,0,1,.32-.2,1.71,1.71,0,0,1,.38-.13,2,2,0,0,1,.44,0,1.58,1.58,0,0,1,.71.15,1.43,1.43,0,0,1,.53.41,1.74,1.74,0,0,1,.32.62,2.52,2.52,0,0,1,.11.79v3.28H96.21V127a.94.94,0,0,0-.17-.59.59.59,0,0,0-.49-.22,1,1,0,0,0-.45.11,1.81,1.81,0,0,0-.41.29v3.69H93.22v-5.17h.91a.35.35,0,0,1,.36.26Zm7.67.67a.53.53,0,0,1-.13.13.23.23,0,0,1-.17,0,.33.33,0,0,1-.2,0l-.2-.12a1.46,1.46,0,0,0-.25-.13,1.27,1.27,0,0,0-.37,0,1,1,0,0,0-.47.1.84.84,0,0,0-.32.3,1.3,1.3,0,0,0-.19.48,3.1,3.1,0,0,0-.06.64,2,2,0,0,0,.27,1.14.87.87,0,0,0,.75.4,1.12,1.12,0,0,0,.41-.07,1.18,1.18,0,0,0,.25-.15l.19-.15a.35.35,0,0,1,.23-.07.29.29,0,0,1,.26.13l.43.56a2.18,2.18,0,0,1-.48.44,2,2,0,0,1-.52.27,2.44,2.44,0,0,1-.53.14,4.49,4.49,0,0,1-.51,0,2.19,2.19,0,0,1-.87-.18,2,2,0,0,1-.72-.52,2.3,2.3,0,0,1-.49-.84,3.31,3.31,0,0,1-.18-1.13,3.55,3.55,0,0,1,.15-1,2.65,2.65,0,0,1,.47-.84,2.16,2.16,0,0,1,.77-.56,2.55,2.55,0,0,1,1.07-.21,2.46,2.46,0,0,1,1,.2,2.41,2.41,0,0,1,.79.57Zm2.13,1.64a1.54,1.54,0,0,0,.37.94,1.13,1.13,0,0,0,.79.29,1.16,1.16,0,0,0,.44-.07,2.52,2.52,0,0,0,.33-.14l.27-.15a.54.54,0,0,1,.25-.06.3.3,0,0,1,.27.13l.42.56a2,2,0,0,1-.49.44,2,2,0,0,1-.54.27,2.7,2.7,0,0,1-.56.14l-.52,0a2.66,2.66,0,0,1-1-.17,2.34,2.34,0,0,1-.79-.53,2.52,2.52,0,0,1-.54-.87,3.36,3.36,0,0,1-.19-1.2,2.71,2.71,0,0,1,.17-1,2.35,2.35,0,0,1,.48-.81,2.32,2.32,0,0,1,.76-.55,2.38,2.38,0,0,1,1-.21,2.56,2.56,0,0,1,.89.16,1.88,1.88,0,0,1,.7.47,2.06,2.06,0,0,1,.46.74,2.87,2.87,0,0,1,.16,1,2.44,2.44,0,0,1,0,.29.58.58,0,0,1-.05.17.24.24,0,0,1-.11.09.35.35,0,0,1-.16,0Zm1.85-.9a1.37,1.37,0,0,0,0-.36.81.81,0,0,0-.15-.31.87.87,0,0,0-.27-.23,1,1,0,0,0-.4-.08.86.86,0,0,0-.66.25,1.33,1.33,0,0,0-.31.73Zm5.91-3.38a.8.8,0,0,1-.07.34.84.84,0,0,1-.2.29.92.92,0,0,1-.28.19.84.84,0,0,1-.35.07.8.8,0,0,1-.34-.07,1.07,1.07,0,0,1-.28-.19,1,1,0,0,1-.19-.29,1,1,0,0,1-.07-.34,1,1,0,0,1,.07-.36,1.12,1.12,0,0,1,.19-.29.87.87,0,0,1,.28-.19.8.8,0,0,1,.34-.07.84.84,0,0,1,.35.07.77.77,0,0,1,.28.19.94.94,0,0,1,.2.29A.86.86,0,0,1,112.14,123.68Zm-.15,1.41v5.17h-1.47v-5.17Zm2.39.56.29-.26a1.38,1.38,0,0,1,.33-.2,1.47,1.47,0,0,1,.37-.13,2,2,0,0,1,.44,0,1.66,1.66,0,0,1,.72.15,1.48,1.48,0,0,1,.52.41,1.93,1.93,0,0,1,.33.62,2.85,2.85,0,0,1,.1.79v3.28H116V127a.94.94,0,0,0-.16-.59.61.61,0,0,0-.49-.22,1,1,0,0,0-.46.11,1.81,1.81,0,0,0-.41.29v3.69H113v-5.17h.91a.35.35,0,0,1,.36.26Zm7.67.67a.51.51,0,0,1-.12.13.26.26,0,0,1-.18,0,.35.35,0,0,1-.2,0l-.19-.12a1.58,1.58,0,0,0-.26-.13,1.27,1.27,0,0,0-.37,0,1,1,0,0,0-.46.1.86.86,0,0,0-.33.3,1.3,1.3,0,0,0-.19.48,3.1,3.1,0,0,0-.06.64,2,2,0,0,0,.27,1.14.87.87,0,0,0,.75.4,1.08,1.08,0,0,0,.41-.07,1.18,1.18,0,0,0,.25-.15l.2-.15a.32.32,0,0,1,.22-.07.28.28,0,0,1,.26.13l.43.56a2.18,2.18,0,0,1-.48.44,2.1,2.1,0,0,1-.51.27,2.78,2.78,0,0,1-.53.14l-.52,0a2.11,2.11,0,0,1-.86-.18,2,2,0,0,1-.73-.52,2.45,2.45,0,0,1-.49-.84,3.31,3.31,0,0,1-.18-1.13,3.25,3.25,0,0,1,.16-1,2.31,2.31,0,0,1,.47-.84,2,2,0,0,1,.77-.56,2.51,2.51,0,0,1,1.06-.21,2.46,2.46,0,0,1,1,.2,2.31,2.31,0,0,1,.79.57Zm2.13,1.64a1.49,1.49,0,0,0,.38.94,1.09,1.09,0,0,0,.78.29,1.16,1.16,0,0,0,.44-.07,1.72,1.72,0,0,0,.33-.14l.27-.15a.54.54,0,0,1,.25-.06.3.3,0,0,1,.27.13l.43.56a2.26,2.26,0,0,1-.5.44,2,2,0,0,1-.54.27,2.78,2.78,0,0,1-.55.14l-.53,0a2.57,2.57,0,0,1-1-.17,2.28,2.28,0,0,1-.8-.53,2.51,2.51,0,0,1-.53-.87,3.35,3.35,0,0,1-.2-1.2,2.94,2.94,0,0,1,.17-1,2.35,2.35,0,0,1,.48-.81,2.26,2.26,0,0,1,.77-.55,2.34,2.34,0,0,1,1-.21,2.57,2.57,0,0,1,.9.16,1.84,1.84,0,0,1,.69.47,2.06,2.06,0,0,1,.46.74,2.87,2.87,0,0,1,.16,1,2.44,2.44,0,0,1,0,.29.58.58,0,0,1,0,.17.28.28,0,0,1-.1.09.43.43,0,0,1-.17,0Zm1.85-.9a1.37,1.37,0,0,0,0-.36.81.81,0,0,0-.15-.31.87.87,0,0,0-.27-.23,1,1,0,0,0-.4-.08.86.86,0,0,0-.66.25,1.41,1.41,0,0,0-.31.73Zm3.44-1.33a2.75,2.75,0,0,1,.66-.53A1.76,1.76,0,0,1,131,125a1.47,1.47,0,0,1,.71.18,1.65,1.65,0,0,1,.57.52,2.89,2.89,0,0,1,.37.83,4.25,4.25,0,0,1,.13,1.12,3.64,3.64,0,0,1-.15,1.07,2.77,2.77,0,0,1-.43.86,2.15,2.15,0,0,1-.67.57,1.76,1.76,0,0,1-.86.2,1.53,1.53,0,0,1-.64-.11,1.88,1.88,0,0,1-.48-.31v2h-1.47v-6.82H129a.34.34,0,0,1,.36.26Zm.09,3.13a1.14,1.14,0,0,0,.36.27,1.15,1.15,0,0,0,.41.08.82.82,0,0,0,.38-.09.76.76,0,0,0,.3-.27,1.62,1.62,0,0,0,.19-.49,3,3,0,0,0,.07-.72,4.25,4.25,0,0,0-.05-.69,1.38,1.38,0,0,0-.16-.45.6.6,0,0,0-.25-.25.66.66,0,0,0-.32-.08,1.06,1.06,0,0,0-.53.13,1.47,1.47,0,0,0-.4.36Zm9.25,1.4h-1.48v-4.1h-2.06v2.57a.49.49,0,0,0,.09.3.28.28,0,0,0,.24.11.27.27,0,0,0,.13,0l.1,0,.07,0a.13.13,0,0,1,.09,0,.15.15,0,0,1,.1,0,.45.45,0,0,1,.09.1l.44.74a1.86,1.86,0,0,1-.64.33,2.29,2.29,0,0,1-.74.11,1.72,1.72,0,0,1-.62-.1,1.39,1.39,0,0,1-.45-.31,1.29,1.29,0,0,1-.27-.47,1.81,1.81,0,0,1-.1-.63v-2.67h-.42a.27.27,0,0,1-.19-.08.26.26,0,0,1-.08-.22v-.61l.78-.16.29-1.26a.3.3,0,0,1,.32-.24h.77v1.51h3.54Zm.2-6.59a.84.84,0,0,1-.07.35,1,1,0,0,1-.19.29,1.12,1.12,0,0,1-.29.19.84.84,0,0,1-.35.07.8.8,0,0,1-.34-.07,1.07,1.07,0,0,1-.28-.19,1,1,0,0,1-.19-.29.91.91,0,0,1,0-.7,1,1,0,0,1,.19-.29.87.87,0,0,1,.28-.19.81.81,0,0,1,.34-.08.85.85,0,0,1,.35.08.91.91,0,0,1,.29.19,1,1,0,0,1,.19.29A.84.84,0,0,1,139,123.67Zm3.1,1.34a2.61,2.61,0,0,1,1,.19,2.16,2.16,0,0,1,.79.53,2.32,2.32,0,0,1,.51.83,3.34,3.34,0,0,1,0,2.22,2.37,2.37,0,0,1-.51.84,2.31,2.31,0,0,1-.79.54,3,3,0,0,1-2,0,2.46,2.46,0,0,1-.8-.54,2.54,2.54,0,0,1-.52-.84,3.51,3.51,0,0,1,0-2.22,2.49,2.49,0,0,1,.52-.83,2.28,2.28,0,0,1,.8-.53A2.63,2.63,0,0,1,142.11,125Zm0,4.19a.83.83,0,0,0,.75-.38,2.85,2.85,0,0,0,0-2.29.82.82,0,0,0-.75-.37.86.86,0,0,0-.77.37,2.85,2.85,0,0,0,0,2.29A.86.86,0,0,0,142.11,129.2Zm4.61-3.55.29-.26a1.38,1.38,0,0,1,.33-.2,1.47,1.47,0,0,1,.37-.13,2,2,0,0,1,.44,0,1.66,1.66,0,0,1,.72.15,1.48,1.48,0,0,1,.52.41,1.74,1.74,0,0,1,.32.62,2.52,2.52,0,0,1,.11.79v3.28h-1.47V127a.94.94,0,0,0-.17-.59.59.59,0,0,0-.49-.22,1,1,0,0,0-.45.11,1.81,1.81,0,0,0-.41.29v3.69h-1.47v-5.17h.91a.35.35,0,0,1,.36.26Z"/><circle class="cls-4" cx="96.3" cy="96.3" r="85.8"/><path class="cls-4" d="M96.3,182.1a85.8,85.8,0,0,0,0-171.6"/></g></g></svg>