<?xml version="1.0" encoding="utf-8"?>
<!-- Generator: Adobe Illustrator 26.0.3, SVG Export Plug-In . SVG Version: 6.00 Build 0)  -->
<svg version="1.1" id="Layer_1" xmlns="http://www.w3.org/2000/svg" xmlns:xlink="http://www.w3.org/1999/xlink" x="0px" y="0px"
	 viewBox="0 0 653.38 173.6" style="enable-background:new 0 0 653.38 173.6;" xml:space="preserve">
<style type="text/css">
	.st0{display:none;stroke:#000000;stroke-miterlimit:10;}
	.st1{fill:#FFFFFF;}
	.st2{fill:#B9BC8A;}
</style>
<rect x="-10.29" y="-6.14" class="st0" width="1620.14" height="1133.86"/>
<path class="st1" d="M629.42,116.76c-2.32,0.15-6.11,0.22-9.57,0.22c-3.9,0-7.55-0.07-9.65-0.22v1.51c5.12,0.22,6.11,1,6.11,6.48
	v37.41c0,5.49-0.99,6.26-6.11,6.48v1.51c7.4-0.22,17.34-0.22,21.87-0.22c5.04,0,12.15,0,17.27,0.22c-0.37-3.83-0.52-7.77-0.52-9.65
	c0-2.43,0.07-4.6,0.22-6.18h-1.73c-1.07,10.49-2.95,14.1-12.37,14.1h-5.52c-5.12,0-6.11-0.77-6.11-6.26v-37.41
	c0-5.49,0.99-6.26,6.11-6.48V116.76z M588.9,148.42h-17.08l8.65-22.5L588.9,148.42z M583.78,116.39h-1.21l-17.74,45.69
	c-1.73,4.53-3.98,6.11-5.93,6.55v1.51c1.51-0.15,3.09-0.22,5.63-0.22c2.65,0,5.82,0.07,8.69,0.22v-1.51
	c-4.31-0.11-6.55-1.25-6.55-4.53c0-1.55,0.48-3.57,1.51-6.18l3.09-7.99h18.19l4.64,12.37c0.59,1.51,0.88,2.65,0.88,3.53
	c0,2.1-1.69,2.65-5.34,2.8v1.51c2.14-0.15,5.74-0.22,9.65-0.22c2.87,0,6.04,0.07,8.1,0.22v-1.51c-1.58-0.07-3.72-0.99-5.23-4.82
	L583.78,116.39z M518.71,132.59c1.03-10.49,2.17-14.1,11.6-14.1h4.09v42.89c0,6.11-1.29,7.03-7.62,7.25v1.51
	c2.39-0.15,6.63-0.22,11.16-0.22c4.09,0,8.43,0.07,11.08,0.22v-1.51c-6.33-0.22-7.62-1.14-7.62-7.25v-42.89h4.09
	c9.43,0,10.53,3.61,11.6,14.1h1.73c-0.15-1.58-0.22-3.76-0.22-6.18c0-1.88,0.15-5.82,0.52-9.65c-6.26,0.22-14.98,0.22-21.17,0.22
	c-6.19,0-15.02,0-21.28-0.22c0.4,3.83,0.55,7.77,0.55,9.65c0,2.43-0.07,4.6-0.22,6.18H518.71z M510.11,116.76
	c-1.66,0.15-4.45,0.22-6.99,0.22c-2.58,0-5.89-0.07-7.7-0.22v1.51c5.89,0.22,6.85,1.73,6.85,7.25v32.25l-26.62-41.01
	c-1.66,0.15-3.68,0.22-5.89,0.22c-2.54,0-5.34-0.07-6.99-0.22v1.51c5.12,0.22,6.11,1,6.11,6.48v36.63c0,5.52-0.99,7.03-6.11,7.25
	v1.51c1.66-0.15,4.45-0.22,6.99-0.22c2.58,0,5.89,0.07,7.7,0.22v-1.51c-5.85-0.22-6.85-1.73-6.85-7.25v-39.8l31.66,48.93h1.73
	v-44.99c0-5.52,0.99-7.03,6.11-7.25V116.76z M452.32,155.05c-1.07,9.98-2.95,13.36-12.37,13.36h-5.52c-5.12,0-6.11-0.77-6.11-6.26
	v-18.11h5.01c6.55,0,6.63,5.15,7.22,9.98h1.73c-0.37-5.74-0.44-8.25-0.44-10.71c0-1.1-0.04-2.21-0.04-3.61
	c0-1.73,0.04-3.9,0.26-7.11h-1.73c-0.59,3.61-0.44,9.94-6.99,9.94h-5.01v-17.78c0-5.49,0.99-6.26,6.11-6.26h6.26
	c7.99,0,9.13,2.95,10.12,11.85h1.73c-0.15-1.14-0.22-2.87-0.22-4.67c0-1.73,0.15-5.38,0.51-8.91c-4.67,0.22-11.15,0.22-15.76,0.22
	c-4.53,0-14.47,0-21.87-0.22v1.51c5.12,0.22,6.11,1,6.11,6.48v37.41c0,5.49-0.99,6.26-6.11,6.48v1.51
	c7.4-0.22,17.34-0.22,21.87-0.22c5.04,0,12.15,0,17.27,0.22c-0.37-3.83-0.52-7.77-0.52-9.65c0-2.1,0.07-4.09,0.22-5.45H452.32z
	 M407.24,116.76c-2.36,0.15-6.11,0.22-9.57,0.22h-3.57l-16.2,43.52l-16.57-43.74c-1.66,0.15-4.23,0.22-6.44,0.22
	c-2.54,0-5.34-0.07-6.99-0.22v1.51c5.12,0.22,6.11,1,6.11,6.48v36.63c0,5.52-0.99,7.03-6.11,7.25v1.51
	c1.66-0.15,4.46-0.22,6.99-0.22c2.58,0,5.89,0.07,7.7,0.22v-1.51c-5.85-0.22-6.85-1.73-6.85-7.25v-39.8l19,48.93h1.21l18.15-48.71
	v40.35c0,5.49-0.96,6.26-6.08,6.48v1.51c2.1-0.15,5.71-0.22,9.65-0.22c3.46,0,7.22,0.07,9.57,0.22v-1.51
	c-5.12-0.22-6.11-0.99-6.11-6.48v-37.41c0-5.49,0.99-6.26,6.11-6.48V116.76z M326.59,148.42H309.5l8.65-22.5L326.59,148.42z
	 M321.47,116.39h-1.21l-17.75,45.69c-1.73,4.53-3.98,6.11-5.93,6.55v1.51c1.51-0.15,3.09-0.22,5.63-0.22c2.65,0,5.82,0.07,8.69,0.22
	v-1.51c-4.31-0.11-6.55-1.25-6.55-4.53c0-1.55,0.48-3.57,1.51-6.18l3.09-7.99h18.19l4.64,12.37c0.59,1.51,0.88,2.65,0.88,3.53
	c0,2.1-1.69,2.65-5.34,2.8v1.51c2.14-0.15,5.74-0.22,9.65-0.22c2.87,0,6.04,0.07,8.1,0.22v-1.51c-1.58-0.07-3.72-0.99-5.23-4.82
	L321.47,116.39z M258.79,124.6c0-5.19,0.99-6.48,5.6-6.48c15.61,0,20.95,8.14,20.95,25.03c0,16.42-4.45,25.62-20.88,25.62
	c-4.68,0-5.67-1.21-5.67-6.48V124.6z M245.68,118.27c5.12,0.22,6.11,1,6.11,6.48v37.41c0,5.49-0.99,6.26-6.11,6.48v1.51
	c2.1-0.15,5.82-0.22,9.35-0.22c3.24,0,8.28,0.22,10.57,0.22c17.34,0,27.28-10.86,27.28-27.28c0-16.83-8.65-26.1-26.62-26.1
	c-2.87,0-7.92,0.15-11.38,0.22c-0.62,0-1.21,0.04-1.84,0.04c-2.8,0-5.63-0.15-7.36-0.26V118.27z M238.15,116.76
	c-1.66,0.15-4.46,0.22-7,0.22c-2.58,0-5.89-0.07-7.69-0.22v1.51c5.89,0.22,6.85,1.73,6.85,7.25v32.25l-26.62-41.01
	c-1.66,0.15-3.68,0.22-5.89,0.22c-2.54,0-5.34-0.07-6.99-0.22v1.51c5.12,0.22,6.11,1,6.11,6.48v36.63c0,5.52-0.99,7.03-6.11,7.25
	v1.51c1.66-0.15,4.45-0.22,6.99-0.22c2.58,0,5.89,0.07,7.69,0.22v-1.51c-5.85-0.22-6.85-1.73-6.85-7.25v-39.8l31.66,48.93h1.73
	v-44.99c0-5.52,0.99-7.03,6.11-7.25V116.76z M183.93,116.76c-1.66,0.15-4.42,0.22-6.99,0.22c-2.58,0-5.89-0.07-7.7-0.22v1.51
	c5.12,0.22,6.85,1.73,6.85,7.25v23.53c0,11.23-3.09,19.51-14.47,19.51c-10.71,0-11.89-8.51-11.89-18.85v-24.96
	c0-5.49,0.96-6.26,6.11-6.48v-1.51c-2.36,0.15-6.11,0.22-9.61,0.22c-3.9,0-7.51-0.07-9.65-0.22v1.51c5.15,0.22,6.11,1,6.11,6.48
	v23.67c0,10.27,1.14,14.54,5.6,18.7c3.31,3.09,7.84,4.09,12.67,4.09c6.18,0,11.3-2.8,13.81-7.03c2.25-3.83,3.09-8.98,3.09-15.98
	v-22.68c0-5.52,0.96-7.03,6.07-7.25V116.76z M93.2,118.27c5.12,0.22,6.11,1,6.11,6.48v37.41c0,5.49-0.99,6.26-6.11,6.48v1.51
	c2.1-0.15,5.74-0.22,9.65-0.22c4.09,0,8.47,0.07,11.08,0.22v-1.51c-6.33-0.22-7.62-0.99-7.62-6.48v-17.34h5.52
	c6.55,0,6.63,5.12,7.22,9.94h1.77c-0.4-5.71-0.48-8.21-0.48-10.71c0-1.1-0.04-2.21-0.04-3.57c0-1.77,0.04-3.94,0.26-7.11h-1.73
	c-0.59,3.61-0.44,9.94-7,9.94h-5.52v-18.56c0-5.49,0.99-6.26,6.11-6.26h4.75c9.42,0,10.57,3.61,11.63,14.1h1.73
	c-0.15-1.58-0.22-3.76-0.22-6.18c0-1.88,0.15-5.82,0.51-9.65c-4.68,0.22-11.15,0.22-15.76,0.22c-4.53,0-14.47,0-21.87-0.22V118.27z
	 M33.03,152.58c0,10.64-0.07,14.99-0.29,18.08h1.73c0.29-2.17,0.7-3.31,1.66-3.31c0.63,0,1.36,0.29,2.58,1.07
	c2.17,1.36,4.97,2.8,10.31,2.8c8.76,0,16.02-4.75,16.02-14.32c0-8.1-5.74-12.08-13.59-16.97c-6.77-4.23-12.66-6.96-12.66-13.81
	c0-5.19,3.83-8.76,9.2-8.76c8.36,0,11.82,7.33,12.37,14.51h1.73c0-9.5,0.15-12.74,0.37-15.39h-1.73c-0.29,2.17-0.7,3.31-1.66,3.31
	c-0.7,0-1.36-0.29-2.58-1.07c-2.03-1.36-4.23-2.8-9.2-2.8c-7.44,0-14.17,4.16-14.17,13.07c0,8.51,6.26,12.59,13.44,16.9
	c6.99,4.2,11.74,7.66,11.74,13.77c0,7.11-4.9,10.05-9.79,10.05c-9.65,0-13.11-7.99-13.73-17.12H33.03z M23.18,116.76
	c-2.32,0.15-6.11,0.22-9.57,0.22c-3.9,0-7.55-0.07-9.65-0.22v1.51c5.12,0.22,6.11,1,6.11,6.48v37.41c0,5.49-0.99,6.26-6.11,6.48
	v1.51c2.1-0.15,5.74-0.22,9.65-0.22c3.46,0,7.25,0.07,9.57,0.22v-1.51c-5.12-0.22-6.11-0.99-6.11-6.48v-37.41
	c0-5.49,0.99-6.26,6.11-6.48V116.76z"/>
<path class="st2" d="M648.22,2.1c-3.47,0.24-9.44,0.37-15.95,0.37c-5.72,0-11.93-0.12-15.83-0.37v2.5
	c8.46,0.36,10.11,1.64,10.11,10.72v29.41h-40.55V15.31c0-9.07,1.64-10.35,10.11-10.72V2.1c-3.84,0.24-10.11,0.37-15.83,0.37
	c-6.46,0-12.48-0.12-15.95-0.37v2.5c8.46,0.36,10.11,1.64,10.11,10.72v61.86c0,9.07-1.64,10.35-10.11,10.72v2.5
	c3.47-0.24,9.5-0.36,15.95-0.36c5.72,0,11.99,0.12,15.83,0.36v-2.5c-8.46-0.37-10.11-1.64-10.11-10.72V47.22h40.55v29.96
	c0,9.07-1.64,10.35-10.11,10.72v2.5c3.9-0.24,10.11-0.36,15.83-0.36c6.52,0,12.48,0.12,15.95,0.36v-2.5
	c-8.46-0.37-10.11-1.64-10.11-10.72V15.31c0-9.07,1.64-10.35,10.11-10.72V2.1z M548.51,90.39c-0.36-6.33-0.49-14.86-0.49-29.96
	h-2.86c-1.28,10.11-2.13,14.86-5.78,19.73c-4.69,6.76-13.82,9.5-21.31,9.5c-16.07,0-28.19-15.34-28.19-43.17
	c0-27.03,10.72-43.9,26.97-43.9c8.59,0,16.81,2.98,22.04,9.74c3.53,4.51,4.51,7.85,6.27,18.45h2.86c0-14.49,0.12-22.59,0.49-28.68
	h-2.86c-0.43,5.11-1.46,7.43-3.17,7.43c-0.73,0-1.52-0.36-2.43-1.1c-5.48-4.2-11.99-8.1-22.96-8.1c-23.2,0-39.64,18.75-39.64,46.64
	c0,28.56,15.83,45.18,39.52,45.18c10.72,0,16.93-3.78,23.08-8.1c1.03-0.67,1.89-1.04,2.56-1.04c1.77,0,2.62,2.25,3.04,7.37H548.51z
	 M414.47,46V15.31c0-8.59,1.64-10.72,9.25-10.72c15.1,0,20.7,7.61,20.7,20.7c0,11.45-3.9,20.7-21.55,20.7H414.47z M467.99,82.78
	c-2.31,2.92-3.78,4.75-6.82,4.75c-3.47,0-4.87-2.98-6.39-10.23l-3.11-12.73c-2.38-10.35-6.39-14.61-17.47-16.44l-1.52-0.24
	c18.81-2.92,24.23-15.34,24.23-23.99c0-12.18-9.99-21.68-30.08-21.68c-2.98,0-10.96,0.24-18.82,0.24c-5.48,0-11.75-0.12-15.22-0.37
	v2.5c8.46,0.36,10.11,1.64,10.11,10.72v61.86c0,9.07-1.64,10.35-10.11,10.72v2.5c3.47-0.24,9.5-0.36,15.95-0.36
	c5.72,0,11.99,0.12,15.83,0.36v-2.5c-8.46-0.37-10.11-1.64-10.11-10.72V48.5h11.87c9.86,0,11.69,7.12,14.07,17.72l2.74,12.42
	c2.37,10.66,7.12,13.52,13.39,13.52c6.7,0,9.8-2.86,13.34-7.98L467.99,82.78z M357.81,54.47h-28.25l14.31-37.2L357.81,54.47z
	 M349.35,1.49h-2.01l-29.35,75.56c-2.86,7.49-6.58,10.11-9.8,10.84v2.5c2.5-0.24,5.12-0.36,9.32-0.36c4.38,0,9.62,0.12,14.37,0.36
	v-2.5c-7.12-0.18-10.84-2.07-10.84-7.49c0-2.56,0.79-5.91,2.5-10.23l5.12-13.21h30.08l7.67,20.46c0.97,2.5,1.46,4.38,1.46,5.85
	c0,3.47-2.8,4.38-8.83,4.63v2.5c3.53-0.24,9.5-0.36,15.95-0.36c4.75,0,9.99,0.12,13.4,0.36v-2.5c-2.62-0.12-6.15-1.64-8.65-7.98
	L349.35,1.49z M297.26,65.43c-1.77,16.5-4.87,22.1-20.46,22.1h-9.13c-8.46,0-10.11-1.28-10.11-10.35V47.22h8.28
	c10.84,0,10.96,8.52,11.93,16.5h2.86c-0.61-9.5-0.73-13.64-0.73-17.72c0-1.83-0.06-3.65-0.06-5.97c0-2.86,0.06-6.45,0.43-11.75
	h-2.86c-0.97,5.97-0.73,16.44-11.57,16.44h-8.28V15.31c0-9.07,1.64-10.35,10.11-10.35h10.35c13.21,0,15.1,4.87,16.74,19.61h2.86
	c-0.24-1.89-0.36-4.75-0.36-7.73c0-2.86,0.24-8.89,0.85-14.73c-7.73,0.37-18.45,0.37-26.06,0.37c-7.49,0-23.93,0-36.17-0.37v2.5
	c8.46,0.36,10.11,1.64,10.11,10.72v61.86c0,9.07-1.64,10.35-10.11,10.72v2.5c12.24-0.36,28.68-0.36,36.17-0.36
	c8.34,0,20.09,0,28.56,0.36c-0.61-6.33-0.85-12.85-0.85-15.95c0-3.47,0.12-6.76,0.37-9.01H297.26z M169.18,61.35
	c0,17.6-0.12,24.78-0.49,29.9h2.86c0.49-3.59,1.16-5.48,2.74-5.48c1.04,0,2.25,0.49,4.26,1.76c3.59,2.25,8.22,4.63,17.05,4.63
	c14.49,0,26.49-7.86,26.49-23.69c0-13.39-9.5-19.97-22.47-28.07c-11.2-7-20.95-11.51-20.95-22.83c0-8.58,6.33-14.49,15.22-14.49
	c13.82,0,19.54,12.12,20.46,23.99h2.86c0-15.71,0.24-21.07,0.61-25.45h-2.86c-0.49,3.59-1.16,5.48-2.74,5.48
	c-1.16,0-2.25-0.49-4.26-1.76c-3.35-2.25-7-4.63-15.22-4.63c-12.3,0-23.44,6.88-23.44,21.62c0,14.07,10.35,20.82,22.22,27.95
	c11.57,6.94,19.42,12.67,19.42,22.77c0,11.75-8.1,16.62-16.2,16.62c-15.95,0-21.68-13.21-22.71-28.31H169.18z M149.06,65.43
	c-1.76,16.5-4.87,22.1-20.46,22.1h-9.13c-8.46,0-10.11-1.28-10.11-10.35V47.22h8.28c10.84,0,10.96,8.52,11.93,16.5h2.86
	c-0.61-9.5-0.73-13.64-0.73-17.72c0-1.83-0.06-3.65-0.06-5.97c0-2.86,0.06-6.45,0.43-11.75h-2.86c-0.98,5.97-0.73,16.44-11.57,16.44
	h-8.28V15.31c0-9.07,1.64-10.35,10.11-10.35h10.35c13.21,0,15.1,4.87,16.74,19.61h2.86c-0.24-1.89-0.37-4.75-0.37-7.73
	c0-2.86,0.24-8.89,0.85-14.73c-7.73,0.37-18.45,0.37-26.06,0.37c-7.49,0-23.93,0-36.17-0.37v2.5c8.46,0.36,10.11,1.64,10.11,10.72
	v61.86c0,9.07-1.64,10.35-10.11,10.72v2.5c12.24-0.36,28.68-0.36,36.17-0.36c8.34,0,20.09,0,28.56,0.36
	c-0.61-6.33-0.85-12.85-0.85-15.95c0-3.47,0.12-6.76,0.36-9.01H149.06z M26.1,46V15.31c0-8.59,1.64-10.72,9.26-10.72
	c15.1,0,20.7,7.61,20.7,20.7c0,11.45-3.9,20.7-21.55,20.7H26.1z M79.62,82.78c-2.31,2.92-3.78,4.75-6.82,4.75
	c-3.47,0-4.87-2.98-6.39-10.23l-3.1-12.73c-2.38-10.35-6.39-14.61-17.47-16.44l-1.52-0.24c18.81-2.92,24.23-15.34,24.23-23.99
	c0-12.18-9.98-21.68-30.08-21.68c-2.98,0-10.96,0.24-18.81,0.24c-5.48,0-11.75-0.12-15.22-0.37v2.5
	c8.46,0.36,10.11,1.64,10.11,10.72v61.86c0,9.07-1.64,10.35-10.11,10.72v2.5c3.47-0.24,9.5-0.36,15.95-0.36
	c5.72,0,12,0.12,15.83,0.36v-2.5c-8.46-0.37-10.11-1.64-10.11-10.72V48.5h11.87c9.86,0,11.69,7.12,14.06,17.72l2.74,12.42
	c2.38,10.66,7.12,13.52,13.4,13.52c6.7,0,9.8-2.86,13.33-7.98L79.62,82.78z"/>
</svg>
